<svg width="44" height="43" viewBox="0 0 44 43" fill="none" xmlns="http://www.w3.org/2000/svg">
<path d="M44 7.52551L43.9954 36.3019L22.3469 43L22.3514 14.2259L44 7.52551Z" fill="#4F4F50"/>
<path d="M26.4041 31.6735C25.0532 32.0953 24.087 31.0245 24.0847 29.124C24.0824 27.2235 25.0418 25.5339 26.3927 25.1121C27.6932 24.7065 28.6823 25.8375 28.6823 27.6824C28.6823 29.5273 27.6932 31.2655 26.3927 31.6735H26.4041ZM26.3927 24.7969C25.2478 25.1538 24.3938 26.3103 24.0824 27.8377V25.6637L23.8397 25.7402L23.8557 35.4744L24.0985 35.398V30.3964C24.4144 31.7291 25.2799 32.3456 26.4156 31.9887C27.8374 31.5437 28.9525 29.6223 28.9502 27.6082C28.9479 25.5942 27.826 24.3635 26.4041 24.7992" fill="#EE4036"/>
<path d="M32 23.0447C31.3612 23.244 30.7934 24.0784 30.5507 25.0124V23.6404L30.3057 23.7169L30.3194 30.6212L30.5621 30.5448V25.9557C30.5621 24.8548 31.2078 23.6102 32.0092 23.3576C32.157 23.3066 32.3165 23.3017 32.4671 23.3437V23.0007C32.3131 22.981 32.1567 22.9961 32.0092 23.0447" fill="#EE4036"/>
<path d="M35.3727 28.8668C34.0927 29.2677 33.0968 28.1344 33.083 26.3173C33.0693 24.5002 34.0698 22.7179 35.3498 22.3193C36.6297 21.9207 37.6394 23.0471 37.6394 24.8919C37.6394 26.7368 36.6297 28.482 35.3498 28.8783L35.3727 28.8668ZM35.3383 22.0041C33.937 22.4421 32.8197 24.3774 32.8197 26.3938C32.8197 28.4102 33.9416 29.6385 35.3383 29.1935C36.735 28.7486 37.8569 26.8295 37.8569 24.8154C37.8569 22.8014 36.7235 21.5707 35.3223 22.0041" fill="#EE4036"/>
<path d="M39.6107 18.8335L39.368 18.91V20.8823L38.3514 21.2022V21.5151L39.3657 21.1975V25.8329C39.3657 27.2768 39.9061 27.6523 40.7807 27.3788C40.897 27.3413 41.009 27.2916 41.115 27.2305V26.9176C41.0114 26.9882 40.898 27.0429 40.7785 27.0798C40.0595 27.3116 39.6107 27.0288 39.6085 25.7564V21.121L41.1105 20.6575V20.3377L39.6085 20.8012V18.8265" fill="#EE4036"/>
<path d="M27.0658 39.5327C25.7859 39.9337 24.7876 38.8003 24.7762 36.9833C24.7647 35.1662 25.7676 33.3862 27.0475 32.9853C28.3274 32.5843 29.3371 33.713 29.3371 35.5579C29.3371 37.4028 28.3274 39.148 27.0475 39.5443L27.0658 39.5327ZM27.0338 32.6724C25.6325 33.1104 24.5152 35.0457 24.5152 37.0598C24.5152 39.0738 25.6394 40.3045 27.0338 39.8595C28.4282 39.4145 29.5524 37.4978 29.5524 35.4814C29.5524 33.465 28.4076 32.2367 27.0177 32.6724" fill="#EE4036"/>
<path d="M32.893 30.8252C31.4917 31.2655 30.3744 33.2008 30.3744 35.2149C30.3744 37.2289 31.4963 38.4596 32.893 38.0123C33.9096 37.6948 34.8735 36.5221 35.0635 35.1338L34.8094 35.2149C34.6285 36.4131 33.7768 37.4236 32.893 37.6994C31.6131 38.0981 30.6033 36.967 30.6033 35.1384C30.6033 33.3097 31.5924 31.5414 32.8724 31.1404C33.7882 30.8576 34.5987 31.3722 34.7957 32.3688L35.0475 32.2876C34.8346 31.1288 33.9027 30.5053 32.8724 30.8252" fill="#EE4036"/>
<path d="M38.5117 35.9519C37.2295 36.3529 36.2336 35.2218 36.2221 33.3909C36.2107 31.5599 37.2112 29.7938 38.4911 29.3952C39.771 28.9965 40.7808 30.1229 40.7808 31.9655C40.7808 33.8081 39.771 35.5556 38.4911 35.9519H38.5117ZM38.4774 29.08C37.0761 29.518 35.9588 31.4533 35.9588 33.4674C35.9588 35.4814 37.0784 36.7121 38.4774 36.2671C39.8764 35.8221 40.996 33.9054 40.996 31.889C40.996 29.8726 39.8649 28.6443 38.4614 29.08" fill="#EE4036"/>
<path d="M42.6377 24.8224L42.395 24.8989L42.411 34.9043L42.656 34.8278L42.6377 24.8224Z" fill="#EE4036"/>
<path d="M22.3469 43L0 35.4745L0.00457928 6.70044L22.3515 14.226L22.3469 43Z" fill="#343435"/>
<path d="M7.46423 11.0322C6.19348 10.6034 5.19748 10.8306 4.52891 11.5884V10.2766L1.27075 9.18036V20.6691L4.52662 21.7677V16.1033C4.52662 13.971 5.79737 13.4426 7.36806 13.971C7.77921 14.119 8.17494 14.3076 8.54952 14.5342V11.5398C8.20128 11.3424 7.83843 11.1727 7.46423 11.0322Z" fill="#EE4036"/>
<path d="M14.8346 22.31C13.2639 21.7862 11.9931 20.1152 11.9931 18.5229C11.9931 16.9307 13.2639 16.1218 14.8369 16.6503C16.4099 17.1787 17.6806 18.8474 17.6806 20.4397C17.6806 22.0319 16.4328 22.8501 14.8346 22.31ZM14.0744 13.2595C11.1414 12.2698 8.80826 14.1518 8.80826 17.4499C8.80826 20.7479 11.1437 24.2268 14.0744 25.2164C15.6772 25.7518 16.893 25.4853 17.6806 24.5582V26.1898L20.9388 27.2861V15.8043L17.6829 14.708V16.3466C16.9191 14.8845 15.626 13.7782 14.0744 13.2595Z" fill="#EE4036"/>
<path d="M4.52662 23.8791L1.26846 22.7828V34.267L4.52433 35.3656L4.52662 23.8791Z" fill="#EE4036"/>
<path d="M16.332 27.6222C15.0361 27.1865 13.9737 27.4576 13.2593 28.3175V26.8226L10.0012 25.7263V37.2104L13.2593 38.309V32.2158C13.2593 30.7186 14.1385 30.0303 15.5009 30.4892C16.166 30.7201 16.7415 31.1586 17.1448 31.7417C17.548 32.3248 17.758 33.0223 17.7447 33.7339V39.8178L21.0029 40.9141V34.4107C21.0029 31.1659 19.2467 28.6026 16.3343 27.6222" fill="#EE4036"/>
<path d="M22.3515 14.2259L0.00457764 6.70043L21.6531 0L44 7.52552L22.3515 14.2259Z" fill="#424244"/>
</svg>
